<mxfile host="Electron" agent="Mozilla/5.0 (Windows NT 10.0; Win64; x64) AppleWebKit/537.36 (KHTML, like Gecko) draw.io/26.0.16 Chrome/132.0.6834.196 Electron/34.2.0 Safari/537.36" version="26.0.16">
  <diagram name="PÃ¡gina-1" id="ojJrg_NNNMKZSKkMI_DQ">
    <mxGraphModel dx="938" dy="638" grid="1" gridSize="10" guides="1" tooltips="1" connect="1" arrows="1" fold="1" page="1" pageScale="1" pageWidth="827" pageHeight="1169" math="0" shadow="0">
      <root>
        <mxCell id="0" />
        <mxCell id="1" parent="0" />
        <mxCell id="jjXmEsYkYcYiRnQBhAPG-1" value="Disciplina" style="rounded=1;whiteSpace=wrap;html=1;" vertex="1" parent="1">
          <mxGeometry x="430" y="230" width="160" height="100" as="geometry" />
        </mxCell>
        <mxCell id="jjXmEsYkYcYiRnQBhAPG-2" value="Aluno" style="rounded=1;whiteSpace=wrap;html=1;" vertex="1" parent="1">
          <mxGeometry x="20" y="230" width="160" height="100" as="geometry" />
        </mxCell>
        <mxCell id="jjXmEsYkYcYiRnQBhAPG-3" value="Cursa" style="rhombus;whiteSpace=wrap;html=1;" vertex="1" parent="1">
          <mxGeometry x="250" y="240" width="110" height="80" as="geometry" />
        </mxCell>
        <mxCell id="jjXmEsYkYcYiRnQBhAPG-5" value="" style="endArrow=none;html=1;rounded=0;exitX=1;exitY=0.5;exitDx=0;exitDy=0;entryX=0;entryY=0.5;entryDx=0;entryDy=0;" edge="1" parent="1" source="jjXmEsYkYcYiRnQBhAPG-3" target="jjXmEsYkYcYiRnQBhAPG-1">
          <mxGeometry width="50" height="50" relative="1" as="geometry">
            <mxPoint x="390" y="360" as="sourcePoint" />
            <mxPoint x="440" y="310" as="targetPoint" />
          </mxGeometry>
        </mxCell>
        <mxCell id="jjXmEsYkYcYiRnQBhAPG-6" value="" style="endArrow=none;html=1;rounded=0;exitX=1;exitY=0.5;exitDx=0;exitDy=0;entryX=0;entryY=0.5;entryDx=0;entryDy=0;" edge="1" parent="1" source="jjXmEsYkYcYiRnQBhAPG-2" target="jjXmEsYkYcYiRnQBhAPG-3">
          <mxGeometry width="50" height="50" relative="1" as="geometry">
            <mxPoint x="390" y="360" as="sourcePoint" />
            <mxPoint x="440" y="310" as="targetPoint" />
          </mxGeometry>
        </mxCell>
        <mxCell id="jjXmEsYkYcYiRnQBhAPG-7" value="" style="endArrow=none;html=1;rounded=0;exitX=0.75;exitY=1;exitDx=0;exitDy=0;" edge="1" parent="1" source="jjXmEsYkYcYiRnQBhAPG-2" target="jjXmEsYkYcYiRnQBhAPG-10">
          <mxGeometry width="50" height="50" relative="1" as="geometry">
            <mxPoint x="390" y="360" as="sourcePoint" />
            <mxPoint x="130" y="370" as="targetPoint" />
          </mxGeometry>
        </mxCell>
        <mxCell id="jjXmEsYkYcYiRnQBhAPG-8" value="" style="endArrow=none;html=1;rounded=0;exitX=0.5;exitY=1;exitDx=0;exitDy=0;entryX=0.608;entryY=-0.017;entryDx=0;entryDy=0;entryPerimeter=0;" edge="1" parent="1" source="jjXmEsYkYcYiRnQBhAPG-2" target="jjXmEsYkYcYiRnQBhAPG-11">
          <mxGeometry width="50" height="50" relative="1" as="geometry">
            <mxPoint x="390" y="360" as="sourcePoint" />
            <mxPoint x="90" y="370" as="targetPoint" />
          </mxGeometry>
        </mxCell>
        <mxCell id="jjXmEsYkYcYiRnQBhAPG-9" value="" style="endArrow=none;html=1;rounded=0;exitX=0.25;exitY=1;exitDx=0;exitDy=0;entryX=0.678;entryY=0.053;entryDx=0;entryDy=0;entryPerimeter=0;fillColor=#dae8fc;strokeColor=#6c8ebf;" edge="1" parent="1" source="jjXmEsYkYcYiRnQBhAPG-2" target="jjXmEsYkYcYiRnQBhAPG-12">
          <mxGeometry width="50" height="50" relative="1" as="geometry">
            <mxPoint x="390" y="360" as="sourcePoint" />
            <mxPoint x="50" y="370" as="targetPoint" />
          </mxGeometry>
        </mxCell>
        <mxCell id="jjXmEsYkYcYiRnQBhAPG-10" value="" style="ellipse;whiteSpace=wrap;html=1;aspect=fixed;" vertex="1" parent="1">
          <mxGeometry x="120" y="360" width="20" height="20" as="geometry" />
        </mxCell>
        <mxCell id="jjXmEsYkYcYiRnQBhAPG-11" value="" style="ellipse;whiteSpace=wrap;html=1;aspect=fixed;" vertex="1" parent="1">
          <mxGeometry x="80" y="370" width="20" height="20" as="geometry" />
        </mxCell>
        <mxCell id="jjXmEsYkYcYiRnQBhAPG-12" value="" style="ellipse;whiteSpace=wrap;html=1;aspect=fixed;fillColor=#dae8fc;strokeColor=#6c8ebf;" vertex="1" parent="1">
          <mxGeometry x="40" y="370" width="20" height="20" as="geometry" />
        </mxCell>
        <mxCell id="jjXmEsYkYcYiRnQBhAPG-13" value="" style="endArrow=none;html=1;rounded=0;exitX=0.81;exitY=0.988;exitDx=0;exitDy=0;exitPerimeter=0;" edge="1" parent="1" target="jjXmEsYkYcYiRnQBhAPG-16" source="jjXmEsYkYcYiRnQBhAPG-1">
          <mxGeometry width="50" height="50" relative="1" as="geometry">
            <mxPoint x="550" y="330" as="sourcePoint" />
            <mxPoint x="540" y="370" as="targetPoint" />
          </mxGeometry>
        </mxCell>
        <mxCell id="jjXmEsYkYcYiRnQBhAPG-14" value="" style="endArrow=none;html=1;rounded=0;exitX=0.55;exitY=0.997;exitDx=0;exitDy=0;entryX=0.608;entryY=-0.017;entryDx=0;entryDy=0;entryPerimeter=0;exitPerimeter=0;" edge="1" parent="1" target="jjXmEsYkYcYiRnQBhAPG-17" source="jjXmEsYkYcYiRnQBhAPG-1">
          <mxGeometry width="50" height="50" relative="1" as="geometry">
            <mxPoint x="510" y="330" as="sourcePoint" />
            <mxPoint x="500" y="370" as="targetPoint" />
          </mxGeometry>
        </mxCell>
        <mxCell id="jjXmEsYkYcYiRnQBhAPG-15" value="" style="endArrow=none;html=1;rounded=0;exitX=0.29;exitY=1.005;exitDx=0;exitDy=0;entryX=0.678;entryY=0.053;entryDx=0;entryDy=0;entryPerimeter=0;exitPerimeter=0;fillColor=#dae8fc;strokeColor=#6c8ebf;" edge="1" parent="1" target="jjXmEsYkYcYiRnQBhAPG-18" source="jjXmEsYkYcYiRnQBhAPG-1">
          <mxGeometry width="50" height="50" relative="1" as="geometry">
            <mxPoint x="470" y="330" as="sourcePoint" />
            <mxPoint x="460" y="370" as="targetPoint" />
          </mxGeometry>
        </mxCell>
        <mxCell id="jjXmEsYkYcYiRnQBhAPG-16" value="" style="ellipse;whiteSpace=wrap;html=1;aspect=fixed;" vertex="1" parent="1">
          <mxGeometry x="530" y="360" width="20" height="20" as="geometry" />
        </mxCell>
        <mxCell id="jjXmEsYkYcYiRnQBhAPG-17" value="" style="ellipse;whiteSpace=wrap;html=1;aspect=fixed;" vertex="1" parent="1">
          <mxGeometry x="490" y="370" width="20" height="20" as="geometry" />
        </mxCell>
        <mxCell id="jjXmEsYkYcYiRnQBhAPG-18" value="" style="ellipse;whiteSpace=wrap;html=1;aspect=fixed;fillColor=#dae8fc;strokeColor=#6c8ebf;" vertex="1" parent="1">
          <mxGeometry x="450" y="370" width="20" height="20" as="geometry" />
        </mxCell>
        <mxCell id="jjXmEsYkYcYiRnQBhAPG-19" value="rgm" style="text;html=1;align=center;verticalAlign=middle;whiteSpace=wrap;rounded=0;" vertex="1" parent="1">
          <mxGeometry x="20" y="390" width="60" height="30" as="geometry" />
        </mxCell>
        <mxCell id="jjXmEsYkYcYiRnQBhAPG-20" value="Nome" style="text;html=1;align=center;verticalAlign=middle;whiteSpace=wrap;rounded=0;" vertex="1" parent="1">
          <mxGeometry x="60" y="390" width="60" height="30" as="geometry" />
        </mxCell>
        <mxCell id="jjXmEsYkYcYiRnQBhAPG-21" value="Dt_nascimento" style="text;html=1;align=center;verticalAlign=middle;whiteSpace=wrap;rounded=0;" vertex="1" parent="1">
          <mxGeometry x="120" y="380" width="60" height="30" as="geometry" />
        </mxCell>
        <mxCell id="jjXmEsYkYcYiRnQBhAPG-23" value="numero_creditos" style="text;html=1;align=center;verticalAlign=middle;whiteSpace=wrap;rounded=0;" vertex="1" parent="1">
          <mxGeometry x="550" y="380" width="60" height="30" as="geometry" />
        </mxCell>
        <mxCell id="jjXmEsYkYcYiRnQBhAPG-24" value="nome" style="text;html=1;align=center;verticalAlign=middle;whiteSpace=wrap;rounded=0;" vertex="1" parent="1">
          <mxGeometry x="470" y="390" width="60" height="30" as="geometry" />
        </mxCell>
        <mxCell id="jjXmEsYkYcYiRnQBhAPG-25" value="codigo" style="text;html=1;align=center;verticalAlign=middle;whiteSpace=wrap;rounded=0;" vertex="1" parent="1">
          <mxGeometry x="430" y="385" width="60" height="30" as="geometry" />
        </mxCell>
        <mxCell id="jjXmEsYkYcYiRnQBhAPG-27" value="(0,n)" style="text;html=1;align=center;verticalAlign=middle;whiteSpace=wrap;rounded=0;" vertex="1" parent="1">
          <mxGeometry x="384" y="250" width="60" height="30" as="geometry" />
        </mxCell>
        <mxCell id="jjXmEsYkYcYiRnQBhAPG-28" value="(0,n)" style="text;html=1;align=center;verticalAlign=middle;whiteSpace=wrap;rounded=0;" vertex="1" parent="1">
          <mxGeometry x="170" y="250" width="60" height="30" as="geometry" />
        </mxCell>
        <mxCell id="jjXmEsYkYcYiRnQBhAPG-29" value="aluno_disciplina" style="rounded=1;whiteSpace=wrap;html=1;" vertex="1" parent="1">
          <mxGeometry x="230" y="90" width="120" height="60" as="geometry" />
        </mxCell>
        <mxCell id="jjXmEsYkYcYiRnQBhAPG-33" value="&lt;div&gt;&lt;br&gt;&lt;/div&gt;&lt;div&gt;&lt;br&gt;&lt;/div&gt;" style="endArrow=none;html=1;rounded=0;entryX=0.024;entryY=0.063;entryDx=0;entryDy=0;entryPerimeter=0;exitX=0.997;exitY=0.897;exitDx=0;exitDy=0;exitPerimeter=0;" edge="1" parent="1" source="jjXmEsYkYcYiRnQBhAPG-29" target="jjXmEsYkYcYiRnQBhAPG-1">
          <mxGeometry width="50" height="50" relative="1" as="geometry">
            <mxPoint x="320" y="310" as="sourcePoint" />
            <mxPoint x="370" y="260" as="targetPoint" />
          </mxGeometry>
        </mxCell>
        <mxCell id="jjXmEsYkYcYiRnQBhAPG-34" value="" style="endArrow=none;html=1;rounded=0;exitX=0.993;exitY=0.088;exitDx=0;exitDy=0;exitPerimeter=0;entryX=0.074;entryY=1.008;entryDx=0;entryDy=0;entryPerimeter=0;" edge="1" parent="1" source="jjXmEsYkYcYiRnQBhAPG-2" target="jjXmEsYkYcYiRnQBhAPG-29">
          <mxGeometry width="50" height="50" relative="1" as="geometry">
            <mxPoint x="320" y="310" as="sourcePoint" />
            <mxPoint x="370" y="260" as="targetPoint" />
          </mxGeometry>
        </mxCell>
        <mxCell id="jjXmEsYkYcYiRnQBhAPG-35" value="" style="endArrow=none;html=1;rounded=0;exitX=0.136;exitY=0.039;exitDx=0;exitDy=0;exitPerimeter=0;" edge="1" parent="1" target="jjXmEsYkYcYiRnQBhAPG-38" source="jjXmEsYkYcYiRnQBhAPG-29">
          <mxGeometry width="50" height="50" relative="1" as="geometry">
            <mxPoint x="270" y="-40" as="sourcePoint" />
            <mxPoint x="260" as="targetPoint" />
          </mxGeometry>
        </mxCell>
        <mxCell id="jjXmEsYkYcYiRnQBhAPG-36" value="" style="endArrow=none;html=1;rounded=0;entryX=0.608;entryY=-0.017;entryDx=0;entryDy=0;entryPerimeter=0;exitX=0.303;exitY=-0.017;exitDx=0;exitDy=0;exitPerimeter=0;" edge="1" parent="1" target="jjXmEsYkYcYiRnQBhAPG-39" source="jjXmEsYkYcYiRnQBhAPG-29">
          <mxGeometry width="50" height="50" relative="1" as="geometry">
            <mxPoint x="280" y="87" as="sourcePoint" />
            <mxPoint x="220" as="targetPoint" />
          </mxGeometry>
        </mxCell>
        <mxCell id="jjXmEsYkYcYiRnQBhAPG-37" value="" style="endArrow=none;html=1;rounded=0;exitX=0.685;exitY=0.011;exitDx=0;exitDy=0;entryX=0.678;entryY=0.053;entryDx=0;entryDy=0;entryPerimeter=0;exitPerimeter=0;" edge="1" parent="1" target="jjXmEsYkYcYiRnQBhAPG-40" source="jjXmEsYkYcYiRnQBhAPG-29">
          <mxGeometry width="50" height="50" relative="1" as="geometry">
            <mxPoint x="190" y="-40" as="sourcePoint" />
            <mxPoint x="180" as="targetPoint" />
          </mxGeometry>
        </mxCell>
        <mxCell id="jjXmEsYkYcYiRnQBhAPG-38" value="" style="ellipse;whiteSpace=wrap;html=1;aspect=fixed;" vertex="1" parent="1">
          <mxGeometry x="240" y="30" width="20" height="20" as="geometry" />
        </mxCell>
        <mxCell id="jjXmEsYkYcYiRnQBhAPG-39" value="" style="ellipse;whiteSpace=wrap;html=1;aspect=fixed;" vertex="1" parent="1">
          <mxGeometry x="280" y="40" width="20" height="20" as="geometry" />
        </mxCell>
        <mxCell id="jjXmEsYkYcYiRnQBhAPG-40" value="" style="ellipse;whiteSpace=wrap;html=1;aspect=fixed;" vertex="1" parent="1">
          <mxGeometry x="330" y="40" width="20" height="20" as="geometry" />
        </mxCell>
        <mxCell id="jjXmEsYkYcYiRnQBhAPG-41" value="p1" style="text;html=1;align=center;verticalAlign=middle;whiteSpace=wrap;rounded=0;" vertex="1" parent="1">
          <mxGeometry x="170" y="20" width="60" height="30" as="geometry" />
        </mxCell>
        <mxCell id="jjXmEsYkYcYiRnQBhAPG-42" value="p2" style="text;html=1;align=center;verticalAlign=middle;whiteSpace=wrap;rounded=0;" vertex="1" parent="1">
          <mxGeometry x="220" y="5" width="60" height="30" as="geometry" />
        </mxCell>
        <mxCell id="jjXmEsYkYcYiRnQBhAPG-43" value="media" style="text;html=1;align=center;verticalAlign=middle;whiteSpace=wrap;rounded=0;" vertex="1" parent="1">
          <mxGeometry x="270" y="10" width="60" height="30" as="geometry" />
        </mxCell>
        <mxCell id="jjXmEsYkYcYiRnQBhAPG-44" value="" style="endArrow=none;html=1;rounded=0;exitX=0.025;exitY=0.136;exitDx=0;exitDy=0;exitPerimeter=0;" edge="1" parent="1" target="jjXmEsYkYcYiRnQBhAPG-45" source="jjXmEsYkYcYiRnQBhAPG-29">
          <mxGeometry width="50" height="50" relative="1" as="geometry">
            <mxPoint x="256" y="102" as="sourcePoint" />
            <mxPoint x="270" y="10" as="targetPoint" />
          </mxGeometry>
        </mxCell>
        <mxCell id="jjXmEsYkYcYiRnQBhAPG-45" value="" style="ellipse;whiteSpace=wrap;html=1;aspect=fixed;" vertex="1" parent="1">
          <mxGeometry x="190" y="50" width="20" height="20" as="geometry" />
        </mxCell>
        <mxCell id="jjXmEsYkYcYiRnQBhAPG-48" value="faltas" style="text;html=1;align=center;verticalAlign=middle;whiteSpace=wrap;rounded=0;" vertex="1" parent="1">
          <mxGeometry x="320" y="10" width="60" height="30" as="geometry" />
        </mxCell>
      </root>
    </mxGraphModel>
  </diagram>
</mxfile>
